<?xml version="1.0" standalone="no"?>
<!DOCTYPE svg PUBLIC "-//W3C//DTD SVG 1.1//EN" "http://www.w3.org/Graphics/SVG/1.1/DTD/svg11.dtd">
<svg xmlns="http://www.w3.org/2000/svg">
<metadata>Copyright (C) 2018 by original authors @ fontello.com</metadata>
<defs>
<font id="fontello" horiz-adv-x="1000" >
<font-face font-family="fontello" font-weight="400" font-stretch="normal" units-per-em="1000" ascent="850" descent="-150" />
<missing-glyph horiz-adv-x="1000" />
<glyph glyph-name="market-icon" unicode="&#xe800;" d="M606 359h-310a41 41 0 0 1-41-42v-288a41 41 0 0 1 41-42h310a41 41 0 0 1 41 42v288a41 41 0 0 1-41 42z m-42-289h-226v206h226z m738 573l-165 172a110 110 0 0 1-83 34h-769a110 110 0 0 1-76-30l-185-175a76 76 0 0 1-24-55v-77a83 83 0 0 1 83-83 83 83 0 0 1 20 7v-541a41 41 0 0 1 41-42h1036a41 41 0 0 1 41 42v541a83 83 0 0 1 21-4 83 83 0 0 1 82 83v83a76 76 0 0 1-22 45z m-505-699v331h190v-331z m273-11v388a41 41 0 0 1-42 41h-272a41 41 0 0 1-41-41v-388h-530v527a83 83 0 0 1 63-30 83 83 0 0 1 83 83h0a83 83 0 0 1 165 0h0a83 83 0 0 1 166 0h0a83 83 0 0 1 165 0h0a83 83 0 0 1 166 0h0a83 83 0 0 1 82-83 83 83 0 0 1 62 30v-527z" horiz-adv-x="1323" />

<glyph glyph-name="warning-circle" unicode="&#xe801;" d="M502 850c-278 0-502-224-502-502 0-277 224-501 502-501 277 0 501 224 501 501-3 278-227 502-501 502z m66-848h-132v148h132v-148z m0 204h-132v472h132v-472z" horiz-adv-x="1000" />

<glyph glyph-name="edit-pencil" unicode="&#xe802;" d="M935 785c-86 87-226 87-312 0l-572-572c-5-4-7-10-8-16l-43-314c-1-9 2-18 8-25 6-5 13-8 21-8 1 0 2 0 3 0l190 26c15 2 27 16 24 32s-16 27-32 25l-152-21 30 220 230-231c6-5 13-9 21-9s15 3 20 9l572 572c42 42 65 97 65 156 0 59-23 115-65 156z m-823-592l522 522 96-96-522-522-96 96z m231-231l-94 94 522 522 94-94-522-522z m562 563l-230 230c30 24 66 38 104 38 44 0 85-18 116-48 31-31 48-72 48-116 0-38-14-74-38-104z" horiz-adv-x="1000" />

<glyph glyph-name="plus-circle" unicode="&#xe803;" d="M500 850c-275 0-500-225-500-500s225-500 500-500 500 225 500 500-225 500-500 500z m0-962c-254 0-461 208-461 462 0 254 207 462 461 462 254 0 462-208 462-462s-208-462-462-462z m240 491h-221v211c0 12-7 20-19 20s-19-8-19-20v-211h-221c-12 0-20-8-20-19s8-20 20-20h221v-230c0-12 8-20 19-20s19 8 19 20v230h221c12 0 20 8 20 20s-8 19-20 19z" horiz-adv-x="1000" />

<glyph glyph-name="file-curl-icon" unicode="&#xe804;" d="M860 90v609c0 17-11 28-28 28s-27-11-27-28v-704c0-5 5-17 11-22v-17c0-33-11-50-28-56h-11c-12 6-28 23-28 51 0 0 0 0 0 0v167c0 6-6 17-12 23l-50 50c-11 11-28 11-39 0 0 0 0 0 0 0l-28-28-28 28c-11 11-28 11-39 0 0 0 0 0 0 0l-28-28-28 28c-11 11-28 11-39 0 0 0 0 0 0 0l-28-28-39 28c-11 11-28 11-39 0l-28-28-28 28c-11 11-28 11-39 0 0 0 0 0 0 0l-33-28-28 28c-6 5-23 11-28 5v565l22 22 28-28c11-11 28-11 39 0 0 0 0 0 0 0l34 28 33-28c11-11 28-11 39 0 0 0 0 0 0 0l28 28 28-28c11-11 28-11 39 0 0 0 0 0 0 0l34 28 33-28c11-11 28-11 39 0 0 0 0 0 0 0l34 28 28-28c11-11 28-11 39 0 0 0 0 0 0 0l33 28 28-34c11-11 28-11 39 0 0 0 0 0 0 0l34 28 28-28c11-5 28-5 39 12 6 11 6 22 0 33l-50 50c-11 12-28 12-39 0 0 0 0 0 0 0l-34-33-28 28c-17 11-33 11-45 5 0 0 0 0 0 0l-33-33-28 33c-11 12-28 12-39 0 0 0 0 0 0 0l-34-33-28 28c-11 11-28 11-39 5 0 0 0 0 0 0l-33-33-28 28c-11 11-28 11-39 5 0 0 0 0 0 0l-28-33-34 28c-11 11-28 11-39 5 0 0 0 0 0 0l-28-33-33 28c-11 11-28 11-39 5 0 0 0 0 0 0l-51-50c-5-11-5-17-5-22v-592l-11 11c-12 11-28 11-39 0 0 0 0 0 0 0l-51-50c-5-6-11-12-11-17v-146c0-67 56-128 123-128 0 0 0 0 0 0h659c50 6 90 50 84 106 0 0 0 0 0 0v112c0 6 0 17-6 22z m-804-117v134l22 22 28-28c11-11 28-11 39 0 0 0 0 0 0 0l28 28 28-28c11-11 28-11 39 0 0 0 0 0 0 0l28 28 28-28c11-11 28-11 39 0 0 0 0 0 0 0l28 28 28-28c11-11 28-11 39 0 0 0 0 0 0 0l28 28 45-28c11-11 28-11 39 0 0 0 0 0 0 0l28 28 28-28c11-11 28-11 39 0 0 0 0 0 0 0l28 28 22-22v-123c0 0 0-6 0-6v-22c0-17 6-33 11-50h-575c-34 0-67 28-67 67 0 0 0 0 0 0z m620 665h-374c-17 0-28-11-28-28s11-28 28-28h374c17 0 28 11 28 28s-11 28-28 28l0 0z m0-134h-374c-17 0-28-11-28-28s11-28 28-28h374c17 0 28 11 28 28s-11 28-28 28l0 0z m0-134h-374c-17 0-28-12-28-28s11-28 28-28h374c17 0 28 11 28 28s-11 28-28 28l0 0z" horiz-adv-x="866" />

<glyph glyph-name="pasar-icon" unicode="&#xe805;" d="M282 526c149 37 308 37 457 0h6c16 0 26 10 32 21 0 16-11 26-22 32-159 42-324 42-484 0-16 0-26-16-21-32s21-21 32-21l0 0z m739-676l-53 53c-5 5-11 11-16 11v596l27 111c5 11-6 27-16 32-37 16-80 27-112 43 0 0 0 5 0 5v43c0 101-255 106-335 106s-340-5-340-106v-48c0 0 0-6 0-6-38-10-75-26-112-42-11-5-21-16-16-32l27-112v-590l-11-6-64-58h330l0 0h362l0 0h329z m-138 516c5 0 5 0 11 0l0 0v-431h-80v458c21-11 48-22 69-27z m-654 378c0 16 85 53 282 53 69 0 138-5 207-21 64-11 75-32 75-32v-38c-181 59-383 59-564 0l0 38z m691-139l-42-180c-277 106-452 106-729 0l-43 180c314 123 500 123 814 0z m-707-670h-85v426c5 0 5 0 10 0 27 10 54 21 75 32v-458z m64-32l0 0-11 11v495c160 53 335 53 495 0v-495l-6 0-5-6h-473z" horiz-adv-x="1021" />

<glyph glyph-name="rupiah-icon" unicode="&#xe808;" d="M1070 693h-989c-8 0-15-8-15-15v-48h-51c-8-3-15-11-15-18v-590c0-7 7-14 15-14h989c7 0 14 7 14 14v51h55c8 0 15 8 15 15v590c0 7-7 15-18 15z m-960-103v37 25h110c0 0 0-3 0-3 0-8-4-15-4-22-7-15-14-26-25-37 0 0 0 0-4-4-11-14-26-25-44-33-11-3-22-7-33-7v44z m-66 0h26v-103c-11-3-19-3-26-7v110z m0-147c7 4 15 4 22 4v-264c-7 4-15 4-26 4v256z m0-399v106c7 0 18-3 26-3v-59c0-7 7-15 14-15h63c0-10 3-21 3-29h-106z m77 66h-11v11 44 51c59-7 103-51 110-106h-55-44z m711-66h-645c0 8-4 19-4 26h652c0-7-3-18-3-26z m142 0h-106c0 11 4 19 8 26h102v-26z m70 66h-26-44-40c0 11 4 22 11 33 15 33 40 59 73 70 8 3 15 3 26 3v-106z m0 143c-7 0-15-4-26-4-14-3-29-11-44-18-25-15-44-33-58-59-11-18-19-36-19-58 0 0 0-4 0-4h-3-44-594c-7 77-65 139-146 143v212 44 0c0 0 0 0 0 0 22 0 44 8 62 19 26 14 48 33 62 62 8 11 11 26 15 40 4 4 7 8 7 15 0 4 0 7 0 7h645c0-7 4-18 4-25 3-15 11-26 18-41 15-22 33-40 55-55 11-7 26-11 40-18 8-4 15-4 26-4v-256z m0 293c-7 0-15 4-26 4-14 7-29 18-44 29-3 4-7 7-11 11-11 11-18 26-22 40-3 8-3 19-7 26h106v-110z m-465 11c-99 0-176-81-176-176s81-176 176-176 176 81 176 176-81 176-176 176z m0-308c-73 0-132 59-132 132 0 73 59 132 132 132 73 0 132-59 132-132 0-73-59-132-132-132z m-19 132c-3 4-7 8-14 11 11 0 18 4 22 11 3 7 7 15 7 22 0 7 0 15-4 18-3 4-7 11-14 11-7 4-15 4-29 4h-52v-121h26v52h11c7 0 11 0 11 0s4-4 7-4c4-4 8-7 11-18l18-26h30l-15 22c-7 7-11 15-15 18z m-36 26h-18v29h18c11 0 15 0 18 0 4 0 8-4 8-4 3-3 3-7 3-11 0-3 0-7-3-7 0-4-4-4-8-4s-7-3-18-3z m110 14c-4-3-8-7-11-11v11h-22v-117h22v44c3-3 7-7 11-11s7-3 14-3c11 0 19 3 26 11 7 7 11 18 11 33 0 14-4 25-11 32-7 8-15 11-26 11-3 4-11 4-14 0z m29-40c0-11 0-18-4-22-3-3-7-7-14-7-8 0-11 4-15 7-4 8-7 15-7 22 0 8 0 15 7 19 4 3 7 7 15 7 3 0 11-4 14-7 0-4 4-11 4-19z" horiz-adv-x="1088" />

<glyph glyph-name="garbage" unicode="&#xe809;" d="M917 706h-208v34c0 61-49 110-110 110h-198c-60 0-110-49-110-110v-34h-208c-15 0-28-12-28-28s13-27 28-27h50v-653c0-81 67-148 149-148h436c82 0 149 67 149 148v653h50c15 0 28 12 28 27s-13 28-28 28z m-570 34c0 30 24 55 54 55h198c30 0 54-25 54-55v-34h-306v34z m465-742l0 0c-1-51-42-93-94-93h-436c-51 0-93 42-93 93v653h623v-653z m-312 7c15 0 28 12 28 28v490c0 16-13 28-28 28s-28-12-28-28v-490c0-15 13-28 28-28z m-181 31c15 0 28 12 28 27v430c0 15-13 28-28 28s-28-13-28-28v-430c0-15 13-27 28-27z m362 0c16 0 28 12 28 27v430c0 15-12 28-28 28s-28-13-28-28v-430c0-15 13-27 28-27z" horiz-adv-x="1000" />

<glyph glyph-name="market-lev-icon" unicode="&#xe80a;" d="M1161 850a40 40 0 0 1-20-6h-464v-253h-336v-251h-334v-427a40 40 0 0 1-7-21 41 41 0 0 1 41-41h1120a41 41 0 0 1 41 41v917a41 41 0 0 1-41 41z m-801-918l760 625v-625z" horiz-adv-x="1202" />

<glyph glyph-name="line-view-icon" unicode="&#xe80b;" d="M930 615c-10 10-20 10-30 10l-185-15c-20 0-40-20-35-45s20-40 45-35l85 5-250-305-175 160c-15 10-40 10-55-5l-285-280c-15-15-15-40 0-55 10-10 20-10 30-10 10 0 20 5 30 10l260 255 175-155c10-5 20-10 30-10 10 0 20 5 30 15l270 330 0-85c0-20 15-40 40-40 0 0 0 0 0 0 20 0 40 15 40 40l5 190c-10 5-15 20-25 25z" horiz-adv-x="1000" />

<glyph glyph-name="form-icon" unicode="&#xe80c;" d="M979 438a33 33 0 0 1-46 0l-303-327-108 116a33 33 0 1 1-47-45l130-139a33 33 0 0 1 24-11h0a33 33 0 0 1 24 11l326 350a33 33 0 0 1 0 45z m-77-180l-57-65a241 241 0 0 0 3-29 241 241 0 1 0-97 196 243 243 0 0 0 26-26l42 43c7 7 10 13 0 21a177 177 0 0 1-25 21l-15 10v397a24 24 0 0 1-23 24h-732a24 24 0 0 1-24-24v-924a24 24 0 0 1 24-24h447a310 310 0 0 0-35 23 315 315 0 0 1 486 261 307 307 0 0 1-14 93s-3 8-6 3z m-750 443h476a33 33 0 0 0 0-66h-476a33 33 0 1 0 0 66z m0-203h476a33 33 0 0 0 31-21 319 319 0 0 1-51 4 312 312 0 0 1-165-48h-291a33 33 0 1 0 0 65z m-32-235a33 33 0 0 0 32 32h169a311 311 0 0 1-23-65h-146a33 33 0 0 0-32 33z" horiz-adv-x="988" />

<glyph glyph-name="rupiah-icon-single" unicode="&#xe80d;" d="M990 647h-931c-7 0-14-7-14-14v-555c0-11 7-18 14-18h931c7 0 13 7 13 14v559c0 7-6 14-13 14z m-162-549h-607c-7 73-62 131-138 135v241c69 4 127 55 138 128 0 3 0 7 0 7h607c7-73 62-128 134-135v-241c-72-7-127-62-134-135z m134 100v-100h-100c7 52 48 93 100 100z m-876 0c55-7 97-48 104-100h-104c0 0 0 100 0 100z m0 311v100h104v-4c-11-52-52-93-104-96z m876 0c-52 7-93 48-100 100h100v-100z m-438 10c-93 0-165-76-165-166s76-165 165-165 166 76 166 165-73 166-166 166z m0-290c-69 0-124 56-124 124s55 125 124 125 124-56 124-125-55-124-124-124z m-14 124c-3 4-7 7-13 11 10 0 17 3 20 10 7 4 11 11 11 17s0 14-4 18c-3 3-7 10-14 10-7 3-13 3-27 3h-48v-110h24v48h3c7 0 10 0 10 0s4-3 7-3c4-7 7-10 14-21l17-24h28l-14 21c-7 10-10 17-14 20z m-34 25h-17v27h17c10 0 14 0 17 0s7-3 7-3c3-4 3-7 3-11s0-6-3-6c0-4-3-4-7-4s-7-3-17-3z m103 13c-3-3-7-6-10-10v10h-21v-110h21v41c3-3 7-6 10-10s7-3 14-3c10 0 17 3 24 10s11 17 11 31-4 24-11 31c-7 7-14 10-24 10-7 4-10 4-14 0z m24-38c0-10 0-17-3-20s-7-7-14-7c-7 0-10 3-14 7-3 3-6 10-6 20 0 7 0 14 6 18 4 3 7 7 14 7 4 0 11-4 14-7s3-11 3-18z" horiz-adv-x="1048" />

<glyph glyph-name="arrow-icon" unicode="&#xe80e;" d="M965 338c0 6 0 12-6 18 0 0 0 6-5 6 0 0 0 5-6 5l-274 314c-17 18-46 24-63 6-18-17-24-46-6-64l215-238-773-6c-24 0-47-17-47-46 0-24 23-47 47-47 0 0 0 0 0 0l773 6-209-250c-18-18-12-47 5-64 12-6 18-12 29-12 12 0 29 6 35 18l274 325c0 0 0 6 5 6 0 0 0 6 6 6 0 6 0 12 0 17 0 0 0 0 0 0 0 0 0 0 0 0z" horiz-adv-x="965" />

<glyph glyph-name="icon-location" unicode="&#xe80f;" d="M828 601c-3 14-11 28-16 40-64 154-204 209-317 209-151 0-317-101-339-310v-43c0-2 0-18 1-26 13-99 91-205 150-305 63-106 128-211 193-316 40 68 80 138 119 204 11 20 23 40 34 58 7 13 21 25 27 37 63 115 164 232 164 346v47c0 13-15 56-16 59z m-330-214c-44 0-93 22-117 83-3 10-3 30-3 32v27c0 78 66 114 124 114 71 0 126-57 126-128 0-71-59-128-130-128z" horiz-adv-x="1000" />

<glyph glyph-name="remove-1" unicode="&#xe810;" d="M14 767c-19 18-19 50 0 69 20 19 50 19 70 0l416-417 417 417c18 19 50 19 68 0 20-19 20-51 0-69l-416-417 416-417c20-18 20-50 0-69-18-19-50-19-68 0l-417 417-416-417c-20-19-50-19-70 0-19 19-19 51 0 69l416 417-416 417z" horiz-adv-x="1000" />

<glyph glyph-name="database-icon" unicode="&#xe811;" d="M774 527c0 0 0 0 0 0 0 20-10 36-20 41h-123v-56h-241v133c-216 0-385-51-385-118 0 0 0 0 0-5-5 0-5-5-5-10v-200l0 0v-385c0-10 5-21 21-26 118-36 246-56 369-56 128 0 251 20 369 56 10 5 21 16 21 26v385l0 0v200c0 5 0 10-6 15z m-723-395v144c108-31 226-46 339-46 113 0 231 15 338 46v-149c-220-62-456-62-677 5l0 0z m677 339v-139c-220-61-456-61-677 0v139c108-47 221-67 339-62 118-5 231 15 338 62z m-677-524v129c108-31 226-46 339-46 113 0 231 15 338 46v-129c-220-61-456-61-677 0z" horiz-adv-x="779" />

<glyph glyph-name="remove" unicode="&#xe812;" d="M118 680c-13 13-13 39 0 52 13 13 39 13 52 0l328-327 327 327c13 13 40 13 53 0 13-13 13-39 0-52l-328-328 328-327c13-13 13-40 0-53-13-13-40-13-53 0l-327 328-328-328c-13-13-39-13-52 0-13 13-13 40 0 53l327 327-327 328z" horiz-adv-x="1000" />

<glyph glyph-name="add-lighter" unicode="&#xe813;" d="M1000 374v-48h-476v-476h-48v476h-476v48h476v476h48v-476h476z" horiz-adv-x="1000" />

<glyph glyph-name="menu-icon" unicode="&#xe814;" d="M1000 850h-922c-49 0-78-29-78-78s29-79 78-79h932c39 0 78 30 78 79s-39 78-88 78z m-196-431h-726c-49 0-78-30-78-69s29-78 78-78h736c29 0 68 39 68 78s-39 69-78 69z m-265-422h-461c-49 0-78-39-78-78s29-79 78-79h471c39 0 79 30 79 79s-50 78-89 78z" horiz-adv-x="1078" />

<glyph glyph-name="add" unicode="&#xe815;" d="M1000 398v-96h-452v-452h-96v452h-452v96h452v452h96v-452h452z" horiz-adv-x="1000" />

<glyph glyph-name="people-default-icon" unicode="&#xe816;" d="M690 334c33 38 55 81 55 136v179c0 109-93 201-201 201 0 0 0 0 0 0h-87c-109 0-202-92-202-201 0 0 0 0 0 0v-179c0-49 22-98 55-136l-27-6c-6 0-6 0-11 0l-6 0c-152-54-266-195-266-293v-152c0-17 11-28 27-28h940c17 0 28 11 28 28v152c0 103-131 266-305 299z m-185-163l0 0c-76 0-146 43-184 108 11 0 27 6 38 6h5c27-16 60-22 87-22h87c33 0 60 6 87 22h5c17 0 33-6 44-6-27-65-98-108-169-108l0 0z m-201 424c60 5 207 32 261 92 17-65 82-76 120-71v-146c0-82-65-147-147-147 0 0 0 0 0 0h-81c-82 0-153 65-153 147 0 0 0 0 0 0v125z m-250-566c0 66 87 185 212 234 38-81 114-136 201-147v-217h-233v136c0 16-11 27-27 27s-28-11-28-27v-136h-125v130z m886-125h-108v136c0 17-11 27-28 27s-27-10-27-27v-136h-250v218c93 5 169 60 207 147 119-49 206-169 206-234l0-131z" horiz-adv-x="995" />

<glyph glyph-name="people-tie-icon" unicode="&#xe817;" d="M622 389c31 36 52 83 52 129v140c0 104-88 192-192 192 0 0 0 0-5 0h-57c-109 0-192-88-192-192l0 0v-145c0-46 21-93 52-129-161-31-280-176-280-270v-140c0-15 10-26 26-26h295c16 0 26 11 26 26s-10 26-26 26h-269v114c0 73 119 218 274 228 6 0 6 0 11 0 10-10 26-15 41-15l31-31-41-342c0-6 0-6 0-11l57-83c10-10 21-15 36-5 0 0 5 5 5 5l57 83c0 5 0 5 0 11l-41 342 31 31c16 5 31 10 47 15 5 0 5 0 10 0 155-5 275-155 275-228v-114h-270c-15 0-26-10-26-26s11-26 26-26h296c15 0 25 11 25 26v140c0 94-119 239-274 275z m-202-16c-78 0-140 63-140 140 0 0 0 0 0 0v104c57 5 186 26 233 78 10-57 73-68 109-68v-119c0-78-62-140-140-140l-62 5z m-285-228c-16 0-26-10-26-26s10-25 26-25h155c16 0 26 10 26 25s-10 26-26 26h-155z" horiz-adv-x="896" />

<glyph glyph-name="people-null-icon" unicode="&#xe818;" d="M690 334c33 38 55 81 55 136v179c0 109-93 201-201 201 0 0 0 0 0 0h-87c-109 0-202-92-202-201 0 0 0 0 0 0v-179c0-49 22-98 55-136-180-33-310-196-310-305v-152c0-16 11-27 27-27h940c17 0 28 11 28 27v152c0 109-131 272-305 305z m-386 315c0 81 71 147 147 147 0 0 0 0 0 0h87c82 0 147-66 147-147l0 0v-179c0-82-65-147-147-147 0 0 0 0 0 0h-81c-82 0-153 65-153 147 0 0 0 0 0 0v179z m636-745h-108v136c0 17-11 27-28 27s-27-10-27-27v-136h-543v136c0 17-11 27-27 27s-28-10-28-27v-136h-125v125c0 82 131 250 305 256h5c27-16 60-22 87-22h87c33 0 60 6 87 22h5c174-11 305-174 305-256v-125z" horiz-adv-x="995" />

<glyph glyph-name="verifikasi-document-icon" unicode="&#xe819;" d="M794 178c0 0 0 5 0 5v539c0 17-11 28-27 28h-73v72c0 17-11 28-27 28h-639c-17 0-28-11-28-28v-805c0-17 11-28 28-28h72v-72c0-17 11-28 28-28l0 0h400c5 0 5 0 11 0 33-28 78-45 122-50 106 0 189 83 189 189 11 61-17 111-56 150l0 0z m-738-134v750h583v-44h-511c-17 0-28-11-28-28v-678h-44z m100 650h583v-483c-95 39-206-5-250-100-22-55-17-117 11-167h-344v750z m511-788c-73 0-134 61-134 133s61 133 134 133 133-61 133-133c0-78-61-133-133-133z m-278 655h222c17 0 28 11 28 28s-11 28-28 28h-222c-17 0-28-11-28-28s11-28 28-28z m0-144h222c17 0 28 11 28 27s-11 28-28 28h-222c-17 0-28-11-28-28s11-27 28-27z m250-111c0 16-11 27-28 27h-222c-17 0-28-11-28-27s11-28 28-28h222c17 0 28 11 28 28 0 0 0 0 0 0z m122-206c-11 11-28 11-39 0 0 0 0 0 0 0l-78-78-33 28c-11 11-28 11-39 0-11-11-11-28 0-39l45-50c5-5 11-11 22-11l0 0c5 0 17 0 22 6l100 100c6 16 11 33 0 44 0 0 0 0 0 0z" horiz-adv-x="856" />

<glyph glyph-name="dashboard-icon" unicode="&#xe81b;" d="M906 850h-812c-52 0-94-42-94-94v-812c0-52 42-94 94-94h812c52 0 94 42 94 94v812c0 52-42 94-94 94z m32-906c0-18-14-32-32-32h-812c-17 0-31 14-31 32v812c0 18 14 32 31 32h812c18 0 32-14 32-32v-812z m-125 781h-625c-35 0-63-28-63-62v-125c0-35 28-63 63-63h625c34 0 62 28 62 63v125c0 34-28 62-62 62z m-625-187v125h625l0-125h-625z m125-125h-125c-35 0-63-28-63-63v-312c0-35 28-63 63-63h125c34 0 62 28 62 63v312c0 35-28 63-62 63z m-125-375v312h125l0-312h-125z m625 375h-313c-34 0-62-28-62-63v-312c0-35 28-63 62-63h313c34 0 62 28 62 63v312c0 35-28 63-62 63z m-313-375v312h313l0-312h-313z" horiz-adv-x="1000" />

<glyph glyph-name="documents-icon" unicode="&#xe81d;" d="M844 850h-552c-39 0-71-32-71-71v-46h-65c-40 0-72-32-72-71v-741c0-39 32-71 72-71h552c39 0 71 32 71 71v46h65c40 0 72 32 72 71v741c0 39-32 71-72 71z m-122-929c0-8-6-14-14-14h-552c-8 0-15 6-15 14v741c0 8 7 14 15 14h65v-638c0-39 32-71 71-71h430v-46l0 0z m137 117c0-8-7-14-15-14h-552c-8 0-14 6-14 14v741c0 8 6 14 14 14h552c8 0 15-6 15-14v-741z m-82 635h-418c-16 0-29-13-29-29 0-15 13-28 29-28h418c16 0 29 13 29 28 0 16-13 29-29 29z m0-136h-418c-16 0-29-13-29-28 0-16 13-29 29-29h418c16 0 29 13 29 29 0 15-13 28-29 28z m0-136h-418c-16 0-29-12-29-28 0-16 13-29 29-29h418c16 0 29 13 29 29 0 16-13 28-29 28z m0-135h-418c-16 0-29-13-29-29 0-16 13-29 29-29h418c16 0 29 13 29 29 0 16-13 29-29 29z" horiz-adv-x="1000" />
</font>
</defs>
</svg>
